<svg width="202" height="196" viewBox="0 0 202 196" fill="none" xmlns="http://www.w3.org/2000/svg">
<g opacity="0.7">
<path fill-rule="evenodd" clip-rule="evenodd" d="M145.411 217.607C137.587 222.404 129.168 226.301 120.294 229.253C113.131 231.594 105.68 233.305 97.9428 234.318C92.8441 234.974 87.6503 235.312 82.3449 235.312C78.4992 235.312 74.7485 235.108 71.0475 234.77C43.3914 232.225 18.4809 220.4 -0.437572 202.422C-1.39694 201.523 -2.33563 200.623 -3.22469 199.678C-13.6826 189.091 -22.1019 176.614 -27.9325 162.782C-33.7176 148.953 -36.9472 133.768 -36.9472 117.892C-36.9472 52.9962 16.4464 0.422607 82.3449 0.422607C83.3497 0.422607 84.3339 0.422607 85.3181 0.442967C85.8474 0.467399 86.3477 0.512191 86.8274 0.512191C90.1232 0.646568 93.3238 0.8746 96.5286 1.23294C96.9835 1.2818 97.488 1.36731 97.9221 1.41618C98.4515 1.48133 98.9766 1.52612 99.4563 1.6157C99.6631 1.64014 99.8657 1.68493 100.048 1.72972C100.734 1.79487 101.421 1.90889 102.066 2.0229C102.793 2.13285 103.505 2.24686 104.187 2.38531C104.555 2.45046 104.944 2.49526 105.287 2.58484C106.11 2.72329 106.867 2.87803 107.619 3.08163C109.153 3.39517 110.667 3.73315 112.172 4.09555C114.893 4.8163 117.593 5.58184 120.248 6.48175C129.126 9.38916 137.566 13.3268 145.361 18.1277L56.289 49.2337C27.107 59.5277 8.07265 86.5373 8.07265 117.843V118.384C8.07265 130.438 10.8846 141.766 16.0577 151.746C16.5581 152.825 17.1535 153.884 17.7945 154.943C18.1625 155.594 18.5719 156.27 18.9854 156.926C19.0516 157.06 19.1426 157.195 19.2335 157.354C19.2584 157.398 19.3038 157.443 19.3287 157.463C20.1019 158.73 20.9496 159.919 21.7932 161.112C22.1613 161.654 22.5748 162.175 22.9635 162.668C25.457 165.888 28.1986 168.885 31.1967 171.634C31.6309 172.041 32.0692 172.444 32.4993 172.807C35.5221 175.462 38.7682 177.852 42.2252 179.945C42.7256 180.263 43.2301 180.552 43.7552 180.869C45.3349 181.794 46.8897 182.604 48.5107 183.394C48.9945 183.618 49.4742 183.842 49.9539 184.046C50.3219 184.249 50.7106 184.383 51.0539 184.518C52.1497 185.015 53.2497 185.463 54.391 185.89C54.9864 186.163 55.6274 186.387 56.2683 186.591C57.3435 186.953 58.4186 187.332 59.4938 187.649C59.7915 187.739 60.0396 187.808 60.3415 187.873L145.411 217.607Z" fill="#FEFEFE" fill-opacity="0.65"/>
<path fill-rule="evenodd" clip-rule="evenodd" d="M201.712 117.89C201.712 159.922 179.28 196.818 145.473 217.606L60.3481 187.876C61.424 188.19 62.4957 188.483 63.5964 188.727C64.6516 188.98 65.6819 189.228 66.7578 189.403H66.7826C67.8543 189.655 68.9757 189.81 70.0764 189.993C70.4198 190.038 70.7384 190.103 71.0819 190.128C72.1784 190.307 73.2584 190.421 74.3798 190.531C75.795 190.669 77.2391 190.759 78.7246 190.824C79.8957 190.869 81.0874 190.893 82.275 190.893C105.667 190.893 120.845 183.596 132.795 172.85C136.25 169.699 138.675 165.529 138.675 160.26C138.675 150.841 131.214 143.255 121.622 143.255C119.814 143.255 118.142 143.544 116.632 143.996C115.122 144.468 113.773 145.055 112.651 145.686C112.262 145.91 111.919 146.114 111.596 146.313C111.278 146.541 111 146.745 110.727 146.948C110.5 147.127 110.247 147.307 109.995 147.49C109.763 147.689 109.54 147.869 109.283 148.027C108.302 148.748 107.297 149.424 106.308 150.055C99.8322 154.176 92.7605 156.611 84.1081 156.611C83.3715 156.611 82.6639 156.587 81.977 156.542C81.4722 156.518 81.017 156.497 80.5619 156.428C79.9619 156.408 79.4612 156.338 78.9108 156.273C78.6377 156.228 78.3812 156.204 78.1081 156.159C77.355 156.025 76.6019 155.911 75.8902 155.752H75.795C75.0212 155.573 74.264 155.373 73.5315 155.145C71.6777 154.628 69.8695 153.952 68.1522 153.117C67.5109 152.804 66.8695 152.49 66.2778 152.128C65.6322 151.765 65.0157 151.407 64.4447 151C64.1716 150.866 63.9191 150.686 63.6916 150.483C63.166 150.145 62.6364 149.786 62.1357 149.379C61.515 148.882 60.8985 148.365 60.3233 147.869C59.8226 147.396 59.3633 146.948 58.8792 146.496C58.6061 146.203 58.3329 145.91 58.0805 145.641C57.6461 145.169 57.2364 144.717 56.8681 144.22C55.8378 143.003 54.9026 141.72 54.0336 140.348C53.893 140.075 53.7564 139.83 53.5702 139.582C52.8378 138.34 52.1757 137.057 51.6047 135.705C49.2212 130.367 47.9426 124.308 47.9426 117.846V117.324C47.9426 96.6713 62.3136 79.125 82.5274 79.125C93.1743 79.125 100.631 82.5251 107.798 88.0223C110.177 89.8466 114.187 91.964 119.496 91.964C129.609 91.964 137.847 84.101 137.847 74.145C137.847 67.3447 134.144 62.6375 131.462 60.52C119.496 50.564 104.343 44.8184 82.8046 44.8184C73.304 44.8184 64.395 46.3739 56.293 49.2324L145.424 18.1264C151.54 21.8889 157.287 26.1686 162.596 30.9206C176.74 43.5113 187.771 59.4613 194.454 77.4555C199.126 90.0706 201.712 103.675 201.712 117.89Z" fill="#FEFEFE"/>
<path fill-rule="evenodd" clip-rule="evenodd" d="M54.5509 146.05C54.5509 151.202 52.5265 155.889 49.151 159.388C45.5958 163.205 40.4594 165.579 34.7375 165.579C28.5681 165.579 23.0804 162.801 19.4373 158.461C19.4122 158.432 19.3829 158.403 19.3536 158.345C17.9441 156.668 16.8566 154.759 16.1204 152.674C15.3299 150.592 14.9158 148.366 14.9158 146.05C14.9158 135.288 23.7873 126.553 34.7375 126.553C36.7285 126.553 38.6985 126.842 40.5222 127.419C45.4494 128.866 49.5317 132.192 51.9994 136.503C53.639 139.31 54.5509 142.579 54.5509 146.05Z" fill="#FEFEFE"/>
</g>
</svg>
