<svg width="379" height="246" viewBox="0 0 379 246" fill="none" xmlns="http://www.w3.org/2000/svg">
<path d="M378.48 90.8549C374.965 88.0346 369.885 88.8006 365.396 88.348C362.333 88.0346 359.34 87.0945 356.661 85.5625C353.355 83.6823 349.979 80.8272 346.256 81.6281C344.342 82.0459 342.776 83.369 340.966 84.135C337.312 85.7018 333.032 84.7617 329.378 83.2297C326.142 81.8718 322.766 79.9916 319.321 80.7924C317.964 81.1058 316.746 81.837 315.528 82.4985C309.368 85.9803 302.861 88.9051 296.145 91.1334L378.48 90.8549Z" fill="#AFADC5"/>
<path d="M203.334 35.6337C197.801 31.1769 189.832 32.3956 182.767 31.6992C177.965 31.2117 173.267 29.7146 169.056 27.3469C163.837 24.3874 158.547 19.8958 152.666 21.1493C149.638 21.8108 147.168 23.8999 144.314 25.1186C138.537 27.5558 131.856 26.0935 126.079 23.691C120.998 21.5323 115.639 18.6076 110.28 19.861C108.157 20.3485 106.209 21.4975 104.295 22.5768C94.5855 28.0781 84.3544 32.6393 73.7754 36.1907L203.334 35.6337Z" fill="#AFADC5"/>
<path d="M129.559 103.042C124.025 98.5851 116.056 99.8038 108.992 99.1074C104.19 98.62 99.4918 97.1228 95.2811 94.7551C90.0611 91.7956 84.7716 87.304 78.8905 88.5575C75.8629 89.219 73.3922 91.3081 70.5386 92.5268C64.7619 94.964 58.0804 93.5017 52.3037 91.0992C47.2229 88.9405 41.8638 86.0158 36.5047 87.2692C34.3819 87.7567 32.4332 88.9057 30.5192 89.985C20.8101 95.4863 10.5791 100.048 0 103.599L129.559 103.042Z" fill="#AFADC5"/>
<path d="M144.138 241.027C144.138 241.027 111.914 192.803 122.667 174.802C133.42 156.801 151.899 207.636 156.457 234.933L144.138 241.027Z" fill="#98C93C"/>
<path d="M153.673 237.093C153.673 237.093 138.535 197.156 149.079 185.527C159.624 173.898 164.565 213.765 163.417 234.412L153.673 237.093Z" fill="#98C93C"/>
<path d="M251.81 244.752C251.81 244.752 273.455 212.371 266.252 200.254C259.048 188.172 246.59 222.329 243.562 240.643L251.81 244.752Z" fill="#98C93C"/>
<path d="M245.406 242.071C245.406 242.071 255.568 215.226 248.504 207.427C241.404 199.592 238.098 226.402 238.864 240.26L245.406 242.071Z" fill="#98C93C"/>
<path d="M371.346 245.31C355.484 241.305 345.524 235.456 333.925 230.477C323.637 226.055 314.374 219.927 303.676 216.271C292.978 212.615 279.862 211.814 270.64 217.734C263.344 222.434 259.697 230.581 251.95 234.76C238.588 241.932 221.332 233.959 209.036 225.533C196.74 217.072 182.025 207.288 166.901 211.153C161.204 212.615 156.408 215.888 151.367 218.604C138.865 225.324 123.044 228.771 109.027 224.732C90.2544 219.335 76.4006 201.473 56.6447 202.727C44.1435 203.528 34.4295 211.884 25.986 219.718C17.3377 227.726 8.64835 237.267 0 245.275L371.346 245.31Z" fill="#266AAD"/>
<path d="M195.572 7.77911V245.344H207.474V7.77911C207.474 4.5062 204.794 1.8252 201.523 1.8252C198.252 1.8252 195.572 4.47138 195.572 7.77911Z" fill="url(#paint0_linear_4060_183169)"/>
<path d="M237.714 0.363281L240.394 1.33819L238.793 5.79492L236.113 4.82L237.714 0.363281Z" fill="url(#paint1_linear_4060_183169)"/>
<path d="M244.188 105.619L225.222 139.741C224.144 141.656 221.742 142.352 219.828 141.273L162.653 109.449C161.818 108.961 161.157 108.195 160.843 107.29L151.03 78.983C150.23 76.7198 151.622 74.2825 153.988 73.795L182.732 67.9456C183.672 67.7715 184.611 67.9108 185.447 68.3634L242.657 100.222C244.571 101.267 245.232 103.704 244.188 105.619Z" fill="#98C93C"/>
<path d="M181.338 143.466L172.882 167.77C172.395 169.128 173.125 170.625 174.483 171.077L215.233 185.283C215.824 185.492 216.486 185.492 217.077 185.214L235.312 177.623C236.774 177.031 237.365 175.256 236.565 173.898L226.821 157.15C226.508 156.628 226.021 156.21 225.429 156.001L184.644 141.795C183.322 141.377 181.825 142.074 181.338 143.466Z" fill="#D59D7F"/>
<path d="M192.614 50.3966L187.881 65.2988C187.603 66.1344 188.09 67.0397 188.925 67.2834L213.877 75.1871C214.259 75.2916 214.642 75.2916 214.99 75.1175L225.917 70.2081C226.787 69.8251 227.135 68.7458 226.613 67.9449L220.419 57.9521C220.21 57.6388 219.897 57.395 219.549 57.2906L194.598 49.3869C193.762 49.1083 192.893 49.5609 192.614 50.3966Z" fill="#266AAD"/>
<path d="M171.838 20.2795L176.675 48.4474C176.953 50.0142 178.45 51.0936 180.016 50.8151L227.204 42.7372C227.9 42.6328 228.526 42.2498 228.979 41.6927L242.62 24.5621C243.699 23.2042 243.351 21.1848 241.854 20.2795L223.411 9.24212C222.819 8.89394 222.123 8.75467 221.427 8.85912L174.204 16.9369C172.603 17.2155 171.559 18.7127 171.838 20.2795Z" fill="#F3AC49"/>
<path d="M148.836 55.6547L154.056 53.0781L158.301 61.7827L153.081 64.3244L148.836 55.6547Z" fill="url(#paint2_linear_4060_183169)"/>
<path d="M140.484 64.4986L143.06 60.5293L149.671 64.7771L147.096 68.7464L140.484 64.4986Z" fill="url(#paint3_linear_4060_183169)"/>
<path d="M138.327 77.6595L138.049 72.9243L145.879 72.4717L146.157 77.1721L138.327 77.6595Z" fill="url(#paint4_linear_4060_183169)"/>
<path d="M244.673 4.82031L246.831 6.66568L243.734 10.2868L241.576 8.40659L244.673 4.82031Z" fill="url(#paint5_linear_4060_183169)"/>
<path d="M251.183 11.3662L252.157 14.0472L247.668 15.6488L246.693 12.9678L251.183 11.3662Z" fill="url(#paint6_linear_4060_183169)"/>
<path d="M201.522 33.8232C203.579 33.8232 205.246 32.1552 205.246 30.0976C205.246 28.0401 203.579 26.3721 201.522 26.3721C199.466 26.3721 197.799 28.0401 197.799 30.0976C197.799 32.1552 199.466 33.8232 201.522 33.8232Z" fill="url(#paint7_linear_4060_183169)"/>
<path d="M201.522 106.071C203.579 106.071 205.246 104.403 205.246 102.346C205.246 100.288 203.579 98.6201 201.522 98.6201C199.466 98.6201 197.799 100.288 197.799 102.346C197.799 104.403 199.466 106.071 201.522 106.071Z" fill="url(#paint8_linear_4060_183169)"/>
<path d="M201.139 166.376C202.581 166.376 203.749 165.207 203.749 163.765C203.749 162.322 202.581 161.153 201.139 161.153C199.698 161.153 198.529 162.322 198.529 163.765C198.529 165.207 199.698 166.376 201.139 166.376Z" fill="url(#paint9_linear_4060_183169)"/>
<path d="M201.522 62.8967C202.348 62.8967 203.018 62.2264 203.018 61.3995C203.018 60.5727 202.348 59.9023 201.522 59.9023C200.695 59.9023 200.025 60.5727 200.025 61.3995C200.025 62.2264 200.695 62.8967 201.522 62.8967Z" fill="url(#paint10_linear_4060_183169)"/>
<path d="M102.031 119.128V245.1H112.506V119.128C112.506 115.054 110.174 111.746 107.251 111.746C104.363 111.746 102.031 115.054 102.031 119.128Z" fill="url(#paint11_linear_4060_183169)"/>
<path d="M65.8742 127.31L141.146 116.9C145.356 116.308 149.219 119.267 149.811 123.445L154.126 154.608C154.717 158.821 151.759 162.686 147.583 163.277L72.3121 173.688C68.1014 174.28 64.2387 171.32 63.6471 167.142L59.3319 135.98C58.7403 131.767 61.6635 127.867 65.8742 127.31Z" fill="#0069B1"/>
<path d="M87.7625 161.64L86.8925 155.477L75.4435 157.079L74.8867 153.145L82.473 136.049L89.8505 135.039L91.9385 150.185L95.0356 149.767L95.662 154.294L92.5649 154.711L93.4348 160.874L87.7625 161.64ZM86.2661 150.951L85.4658 145.241C85.257 143.674 85.1178 142.072 85.0134 140.401L84.8394 140.436C84.2478 142.212 83.7606 143.813 83.1342 145.589L80.4546 151.717V151.787L86.2661 150.951Z" fill="white"/>
<path d="M116.402 144.371C117.516 152.379 115.045 158.298 108.433 159.203C101.751 160.143 97.9931 154.538 96.9143 147.226C95.8703 139.74 98.2367 133.368 104.918 132.463C111.878 131.523 115.428 137.303 116.402 144.371ZM103.039 146.39C103.805 152.309 105.649 154.955 107.981 154.607C110.312 154.294 111.182 151.16 110.382 145.276C109.581 139.566 107.946 136.711 105.51 137.024C103.283 137.372 102.169 140.401 103.039 146.39Z" fill="white"/>
<path d="M131.89 155.547L131.02 149.385L119.57 150.986L119.014 147.052L126.6 129.956L133.977 128.946L136.065 144.092L139.163 143.674L139.789 148.201L136.692 148.619L137.562 154.781L131.89 155.547ZM130.393 144.823L129.593 139.113C129.384 137.546 129.245 135.945 129.14 134.273L128.966 134.308C128.375 136.084 127.888 137.686 127.261 139.461L124.582 145.589V145.659L130.393 144.823Z" fill="white"/>
<path d="M289.982 146.286C291.583 147.017 291.826 144.789 291.826 144.789C293.462 144.963 292.313 138.765 292.244 138.417C293.183 140.193 294.819 140.367 294.819 140.367L292.87 132.324C293.288 128.459 290.399 124.246 290.399 124.246L291.269 118.083L294.958 77.1716C295.793 71.9489 285.353 69.2679 285.353 70.2776C285.458 79.783 283.822 136.084 283.822 136.084L287.929 144.893C288.833 146.738 289.982 146.286 289.982 146.286Z" fill="#FDBFBA"/>
<path d="M290.018 111.816L290.922 159.935C290.679 161.432 290.679 162.964 290.922 164.461L303.137 234.968H319.006L309.679 163.591L318.553 111.781H290.018V111.816Z" fill="#2A2A30"/>
<path d="M320.19 245.031H288.94C288.94 245.031 286.226 240.992 297.188 237.301C297.605 237.162 297.988 236.988 298.371 236.779L302.93 234.272L319.703 233.819C319.738 233.854 320.19 245.031 320.19 245.031Z" fill="url(#paint12_linear_4060_183169)"/>
<path d="M329.968 245.03H298.718C298.718 245.03 296.003 240.991 306.965 237.301C307.348 237.161 307.731 237.022 308.114 236.813L313.612 233.854H329.48C329.515 233.854 329.968 245.03 329.968 245.03Z" fill="url(#paint13_linear_4060_183169)"/>
<path d="M329.759 116.935L322.765 165.924L329.759 234.063H313.438L301.467 164.496C301.363 163.904 301.328 163.278 301.328 162.686L302.685 116.935H329.759Z" fill="#686677"/>
<path d="M314.553 24.8749L313.161 45.0694L301.433 45.5917L301.398 40.4386V39.1852L301.364 34.1714V34.0321C301.294 34.0321 301.259 34.0321 301.19 33.9973C290.611 32.4305 294.404 6.80426 294.404 6.80426C305.783 1.68599 313.892 7.0828 316.641 14.5687C319.425 22.0546 314.553 24.8749 314.553 24.8749Z" fill="#FDBFBA"/>
<path d="M288.591 50.9541L283.406 76.2669H292.315L288.591 50.9541Z" fill="#78A327"/>
<path d="M336.509 58.0915C336.127 59.0316 335.779 59.9717 335.465 60.9814C330.733 75.222 329.654 121.878 329.654 121.878L290.122 122.47C290.122 122.366 288.625 50.9886 288.625 50.9886C288.173 51.2671 300.666 43.05 300.805 42.9456C308.461 47.7853 313.75 40.0557 313.75 40.0557C320.049 41.7269 328.749 44.4776 332.438 46.1488C332.577 46.1837 332.681 46.2533 332.821 46.3229C332.821 46.3229 332.855 46.3229 332.855 46.3578C335.326 47.5068 337.031 49.8744 337.205 52.5902C337.379 55.4453 336.509 58.0915 336.509 58.0915Z" fill="#98C93C"/>
<path d="M336.51 58.092C336.127 59.032 335.779 59.9721 335.466 60.9819C334.143 64.1851 332.473 67.9803 330.281 72.4022C328.088 76.8241 317.648 67.3884 317.648 67.3884L323.53 50.1882C324.365 47.8902 326.314 46.1145 328.715 45.6967C329.828 45.5226 331.081 45.5922 332.403 46.1493C332.543 46.1841 332.647 46.2538 332.786 46.3234C332.786 46.3234 332.821 46.3234 332.821 46.3582C335.292 47.5072 336.997 49.8749 337.171 52.5907C337.38 55.4458 336.51 58.092 336.51 58.092Z" fill="#78A327"/>
<path d="M329.761 73.3764L326.42 78.2162L316.294 92.8746C313.44 97.018 307.037 95.7297 305.993 90.7855L303.209 77.5198L301.539 67.2833L301.156 64.9156L299.311 53.6345C299.311 53.6345 295.971 50.292 295.414 48.6207C295.414 48.6207 294.3 42.5275 294.857 41.4133C295.414 40.2992 296.527 41.4133 296.527 41.4133C296.527 41.4133 296.806 36.4343 296.806 35.3202C296.806 33.0918 296.98 33.0918 297.537 33.0918C299.033 33.0918 299.764 35.3202 299.833 39.185L300.947 43.6417L303.94 46.5664L303.731 42.5275C303.731 42.5275 306.515 41.9704 306.515 46.4272L305.401 50.8839L310.099 67.3181L313.196 77.7984L317.407 67.3181L317.72 67.4573L329.761 73.3764Z" fill="#FDBFBA"/>
<path d="M310.759 18.5034C310.759 18.5034 307.209 12.7584 309.193 10.0774C309.193 10.0774 299.031 17.6678 294.159 10.3211C289.044 2.62633 299.623 -4.23286 312.151 3.18342C312.151 3.18342 315.77 2.03441 318.937 6.59559C318.937 6.59559 321.512 17.1803 313.925 27.9043V24.1788C313.925 24.1788 317.719 17.4937 312.951 16.7973C312.951 16.7625 311.594 16.9018 310.759 18.5034Z" fill="#473765"/>
<path opacity="0.12" d="M311.455 29.75C308.637 37.3752 303.66 39.7428 301.398 40.474V39.2205L301.363 34.2067V34.0674C301.294 34.0674 301.259 34.0674 301.189 34.0326C306.409 33.4755 311.281 29.8545 311.455 29.75Z" fill="black"/>
<path opacity="0.12" d="M329.759 73.3768L326.383 78.2165L317.684 67.4229L329.759 73.3768Z" fill="black"/>
<defs>
<linearGradient id="paint0_linear_4060_183169" x1="195.574" y1="123.565" x2="207.482" y2="123.565" gradientUnits="userSpaceOnUse">
<stop stop-color="#2B0246"/>
<stop offset="1" stop-color="#6A4586"/>
</linearGradient>
<linearGradient id="paint1_linear_4060_183169" x1="236.1" y1="3.07708" x2="240.405" y2="3.07708" gradientUnits="userSpaceOnUse">
<stop stop-color="#EA84DE"/>
<stop offset="1" stop-color="#C352F7"/>
</linearGradient>
<linearGradient id="paint2_linear_4060_183169" x1="148.845" y1="58.711" x2="158.301" y2="58.711" gradientUnits="userSpaceOnUse">
<stop stop-color="#F46595"/>
<stop offset="1" stop-color="#F89597"/>
</linearGradient>
<linearGradient id="paint3_linear_4060_183169" x1="140.499" y1="64.6353" x2="149.663" y2="64.6353" gradientUnits="userSpaceOnUse">
<stop stop-color="#F46595"/>
<stop offset="1" stop-color="#F89597"/>
</linearGradient>
<linearGradient id="paint4_linear_4060_183169" x1="138.038" y1="75.0605" x2="146.17" y2="75.0605" gradientUnits="userSpaceOnUse">
<stop stop-color="#F46595"/>
<stop offset="1" stop-color="#F89597"/>
</linearGradient>
<linearGradient id="paint5_linear_4060_183169" x1="241.569" y1="7.54543" x2="246.843" y2="7.54543" gradientUnits="userSpaceOnUse">
<stop stop-color="#EA84DE"/>
<stop offset="1" stop-color="#C352F7"/>
</linearGradient>
<linearGradient id="paint6_linear_4060_183169" x1="246.695" y1="13.5029" x2="252.14" y2="13.5029" gradientUnits="userSpaceOnUse">
<stop stop-color="#EA84DE"/>
<stop offset="1" stop-color="#C352F7"/>
</linearGradient>
<linearGradient id="paint7_linear_4060_183169" x1="197.806" y1="30.1083" x2="205.249" y2="30.1083" gradientUnits="userSpaceOnUse">
<stop stop-color="#2B0246"/>
<stop offset="1" stop-color="#6A4586"/>
</linearGradient>
<linearGradient id="paint8_linear_4060_183169" x1="197.806" y1="102.342" x2="205.249" y2="102.342" gradientUnits="userSpaceOnUse">
<stop stop-color="#2B0246"/>
<stop offset="1" stop-color="#6A4586"/>
</linearGradient>
<linearGradient id="paint9_linear_4060_183169" x1="198.55" y1="163.778" x2="203.76" y2="163.778" gradientUnits="userSpaceOnUse">
<stop stop-color="#2B0246"/>
<stop offset="1" stop-color="#6A4586"/>
</linearGradient>
<linearGradient id="paint10_linear_4060_183169" x1="200.038" y1="61.385" x2="203.015" y2="61.385" gradientUnits="userSpaceOnUse">
<stop stop-color="#2B0246"/>
<stop offset="1" stop-color="#6A4586"/>
</linearGradient>
<linearGradient id="paint11_linear_4060_183169" x1="102.034" y1="178.419" x2="112.515" y2="178.419" gradientUnits="userSpaceOnUse">
<stop stop-color="#2B0246"/>
<stop offset="1" stop-color="#6A4586"/>
</linearGradient>
<linearGradient id="paint12_linear_4060_183169" x1="308.526" y1="239.438" x2="276.985" y2="239.438" gradientUnits="userSpaceOnUse">
<stop stop-color="#2B0246"/>
<stop offset="1" stop-color="#6A4586"/>
</linearGradient>
<linearGradient id="paint13_linear_4060_183169" x1="339.406" y1="239.437" x2="307.865" y2="239.437" gradientUnits="userSpaceOnUse">
<stop stop-color="#2B0246"/>
<stop offset="1" stop-color="#6A4586"/>
</linearGradient>
</defs>
</svg>
