<svg width="95" height="24" viewBox="0 0 95 24" fill="none" xmlns="http://www.w3.org/2000/svg">
<path fill-rule="evenodd" clip-rule="evenodd" d="M24 12C24 18.6275 18.6274 24 11.9998 24C5.37258 24 0 18.6275 0 12C0 5.37248 5.37258 0 11.9998 0C18.6274 0 24 5.37248 24 12Z" fill="#0069B1"/>
<path fill-rule="evenodd" clip-rule="evenodd" d="M23.9983 12.0001C23.9983 16.3347 21.7016 20.1285 18.2571 22.2371L9.84571 19.2882H9.84197L9.10108 19.0299C9.09318 19.022 9.0807 19.0174 9.0678 19.0132C9.01372 18.9929 8.96006 18.9679 8.90182 18.9388C8.86397 18.9259 8.82653 18.9134 8.78909 18.8926C8.73917 18.8681 8.68925 18.8473 8.6439 18.826C8.47709 18.7433 8.31943 18.6601 8.16135 18.564C8.10727 18.5307 8.05319 18.4974 8.00327 18.4687C7.65384 18.252 7.32062 18.0065 7.0132 17.732C6.97119 17.6946 6.92584 17.6492 6.88383 17.6114C6.57599 17.3289 6.29728 17.0169 6.03978 16.6841C6.00192 16.63 5.96448 16.5801 5.9233 16.5215C5.83594 16.4012 5.75274 16.276 5.67328 16.1475L5.66122 16.1346C5.52394 15.964 5.41578 15.7689 5.34049 15.5526C4.81675 14.5247 4.5293 13.3521 4.5293 12.1083V12.0542C4.5293 8.93427 6.32681 6.23035 9.11772 5.08638L9.83323 4.83637L18.3823 1.84167C21.7557 3.95905 23.9983 7.71958 23.9983 12.0001Z" fill="#00ADC6"/>
<path fill-rule="evenodd" clip-rule="evenodd" d="M17.8112 16.4341C17.8112 16.9791 17.5628 17.4104 17.2101 17.737C15.9987 18.8439 14.4516 19.5973 12.0767 19.5973C11.9548 19.5973 11.8325 19.5973 11.7152 19.5931C11.5625 19.5844 11.4186 19.5761 11.2705 19.5628C11.1573 19.5494 11.0484 19.5365 10.9389 19.5191C10.9044 19.5191 10.8695 19.5108 10.8345 19.5062C10.7214 19.4887 10.6082 19.4712 10.4992 19.445C10.3903 19.4276 10.2813 19.4018 10.1764 19.3751C10.0633 19.3494 9.95429 19.319 9.84571 19.2882C9.81493 19.2795 9.78914 19.2749 9.75877 19.262C9.64936 19.2316 9.54037 19.1925 9.43138 19.153C9.36607 19.1355 9.30076 19.1097 9.24002 19.0835C9.12646 19.0399 9.01331 18.9916 8.89974 18.9396C8.86521 18.9263 8.82569 18.9134 8.79075 18.8918C8.73875 18.8697 8.69091 18.8481 8.64307 18.8265C8.47751 18.7437 8.32068 18.6609 8.15927 18.5648C8.10685 18.5299 8.05485 18.4995 8.00244 18.4691C7.65384 18.2511 7.32229 18.007 7.0132 17.7324C6.96952 17.6933 6.92584 17.6496 6.88258 17.6105C6.57724 17.3272 6.29852 17.0177 6.04144 16.6825C6.00192 16.63 5.96323 16.578 5.92371 16.5211C5.83677 16.3992 5.75399 16.2773 5.67536 16.1467L5.66247 16.1334C5.52269 15.9632 5.4137 15.7673 5.34007 15.5539C4.81717 14.5256 4.5293 13.3533 4.5293 12.107V12.055C4.5293 8.81696 6.46409 6.02818 9.43596 4.96533C10.2596 4.66873 11.1619 4.50732 12.1291 4.50732C14.3206 4.50732 15.8593 5.10011 17.0745 6.12884C17.3494 6.35098 17.7242 6.83436 17.7242 7.53572C17.7242 8.56861 16.8873 9.37937 15.8593 9.37937C15.319 9.37937 14.9134 9.1614 14.6692 8.96962C13.9416 8.40305 13.1837 8.05029 12.1025 8.05029C10.0462 8.05029 8.58608 9.86733 8.58608 11.998V12.055C8.58608 12.7214 8.71712 13.3446 8.95673 13.8978C9.01331 14.0372 9.08319 14.1682 9.15683 14.2988C9.1743 14.3251 9.18761 14.3513 9.20508 14.3775C9.29202 14.521 9.38812 14.652 9.49253 14.7785C9.52748 14.8305 9.57074 14.8742 9.61484 14.922C9.64063 14.9524 9.67141 14.9831 9.6972 15.0135C9.74504 15.0568 9.7933 15.105 9.84571 15.1529C9.90229 15.2053 9.96344 15.2577 10.0288 15.3097C10.0766 15.3534 10.1332 15.3879 10.1856 15.4228C10.2072 15.4449 10.2334 15.4624 10.2638 15.4798C10.3204 15.5189 10.3819 15.5585 10.4468 15.5934C10.508 15.6321 10.5733 15.6629 10.6386 15.6974C10.8129 15.7848 10.9959 15.8542 11.1877 15.9066C11.2618 15.9287 11.3362 15.9503 11.4186 15.9678H11.4273C11.4968 15.9853 11.5758 15.9982 11.654 16.0111C11.6803 16.0156 11.706 16.0156 11.7327 16.0244C11.7888 16.0285 11.8412 16.0377 11.9024 16.0377C11.9457 16.046 11.9939 16.046 12.0463 16.0506C12.1162 16.0551 12.1857 16.0593 12.2597 16.0593C13.14 16.0593 13.8588 15.8064 14.5169 15.3796C14.6172 15.3143 14.7216 15.2444 14.8218 15.1703C14.8481 15.1529 14.8701 15.1354 14.8913 15.1138C14.9179 15.0963 14.9437 15.0788 14.9699 15.0568C14.9961 15.0356 15.0224 15.0135 15.0573 14.996C15.0877 14.974 15.1226 14.9524 15.1617 14.9307C15.2794 14.8654 15.4146 14.8043 15.5669 14.7564C15.7237 14.7086 15.8939 14.6778 16.0769 14.6778C17.0487 14.6778 17.8112 15.4624 17.8112 16.4341Z" fill="#FEFEFE"/>
<path fill-rule="evenodd" clip-rule="evenodd" d="M9.20565 14.8782C9.20565 15.4056 9.00098 15.8849 8.66111 16.238C8.30377 16.6299 7.7896 16.8741 7.21428 16.8741C6.59112 16.8741 6.04242 16.5862 5.67634 16.1465L5.66303 16.1336C5.52326 15.9631 5.41468 15.7676 5.34064 15.5537C5.26243 15.3445 5.21875 15.1136 5.21875 14.8782C5.21875 13.78 6.11189 12.8868 7.21428 12.8868C7.41479 12.8868 7.61072 12.9176 7.79376 12.9788C8.29087 13.1264 8.70021 13.4663 8.94856 13.9064C9.11413 14.1901 9.20565 14.5254 9.20565 14.8782Z" fill="#98C93C"/>
<path fill-rule="evenodd" clip-rule="evenodd" d="M37.5449 14.6158C37.2974 14.6158 37.0792 14.6569 36.8944 14.7382C36.736 14.8089 36.5653 14.9087 36.3871 15.0352C36.2093 15.1613 36.112 15.218 36.0616 15.2427C35.7523 15.3967 35.2507 15.4752 34.5706 15.4752C33.657 15.4752 32.9302 15.1634 32.3478 14.5221C31.7555 13.8714 31.4676 13.0682 31.4676 12.0678C31.4676 11.0227 31.7514 10.2056 32.335 9.56919C32.9104 8.94227 33.6937 8.63785 34.7298 8.63785C34.884 8.63785 35.0998 8.66619 35.3703 8.72083C35.6962 8.78739 35.8653 8.85148 35.9338 8.88516C36.0526 8.95131 36.1775 9.03553 36.3046 9.13494C36.4716 9.26641 36.6469 9.37363 36.8251 9.45333C37.026 9.54372 37.2693 9.58809 37.568 9.58809C37.9973 9.58809 38.3648 9.4102 38.6321 9.07373C38.8804 8.75863 39.0062 8.38889 39.0062 7.97395C39.0062 7.1638 38.541 6.51634 37.6228 6.05006C36.7859 5.62567 35.6826 5.4104 34.3433 5.4104C33.1315 5.4104 32.0285 5.69798 31.0659 6.26492C30.1019 6.8335 29.3409 7.63132 28.8043 8.63702C28.2706 9.63615 28 10.7902 28 12.0678C28 13.2974 28.2578 14.4305 28.7664 15.4345C29.2795 16.4497 30.017 17.257 30.9582 17.8334C31.899 18.4102 32.9995 18.7027 34.2299 18.7027C35.0457 18.7027 35.8273 18.6032 36.5529 18.4073C37.2908 18.2072 37.8979 17.9315 38.3586 17.5881C38.8788 17.1995 39.1427 16.7574 39.1427 16.2747C39.1427 15.8055 38.9996 15.4103 38.7171 15.0989C38.4251 14.7785 38.0307 14.6158 37.5449 14.6158Z" fill="#00ADC6"/>
<path fill-rule="evenodd" clip-rule="evenodd" d="M48.8177 12.0678C48.8177 13.0711 48.548 13.8763 47.9928 14.5291C47.4512 15.1659 46.7689 15.4752 45.9064 15.4752C45.0451 15.4752 44.367 15.1663 43.8332 14.5307C43.2846 13.8779 43.0177 13.0723 43.0177 12.0678C43.0177 11.0638 43.2883 10.2544 43.8439 9.59424C44.3855 8.95048 45.06 8.63784 45.9064 8.63784C46.7677 8.63784 47.4499 8.95089 47.9915 9.59424C48.5476 10.2548 48.8177 11.0642 48.8177 12.0678ZM51.7872 5.90298C51.4585 5.57596 51.0419 5.4104 50.5486 5.4104C50.0528 5.4104 49.6346 5.5813 49.3063 5.91818C49.138 6.09032 49.013 6.28464 48.9309 6.4995C48.5708 6.24314 48.1646 6.02048 47.7166 5.83478C47.0381 5.55337 46.3019 5.4104 45.5301 5.4104C44.4491 5.4104 43.446 5.70044 42.5484 6.2719C41.6554 6.84089 40.9423 7.64283 40.43 8.65592C39.9219 9.66121 39.6641 10.8091 39.6641 12.0678C39.6641 13.3282 39.926 14.4732 40.4428 15.4715C40.9633 16.4764 41.6835 17.2742 42.5839 17.8424C43.4876 18.413 44.5097 18.7027 45.6209 18.7027C46.3848 18.7027 47.1231 18.5342 47.8144 18.2027C48.2561 17.9903 48.6434 17.7463 48.9726 17.4731C48.9775 17.7426 49.4242 18.7014 50.5486 18.7014C51.044 18.7014 51.4622 18.5305 51.7914 18.1936C52.1172 17.8596 52.2822 17.4418 52.2822 16.9521V7.16011C52.2822 6.65356 52.116 6.23082 51.7876 5.90339L51.7872 5.90298Z" fill="#00ADC6"/>
<path fill-rule="evenodd" clip-rule="evenodd" d="M61.6808 11.4559L64.8295 8.56946C65.275 8.18041 65.5014 7.74452 65.5014 7.2729C65.5014 6.89083 65.3331 6.51985 65.0023 6.17065C64.6654 5.81611 64.2727 5.63658 63.8359 5.63658C63.3566 5.63658 62.9322 5.81734 62.5783 6.17024L58.348 10.246V2.74971C58.348 2.26 58.1835 1.8426 57.8568 1.50778C57.5281 1.1709 57.1098 1 56.6144 1C56.1191 1 55.7008 1.1709 55.3721 1.50778C55.0458 1.84219 54.8809 2.25959 54.8809 2.74971V16.9519C54.8809 17.4421 55.0463 17.8599 55.3717 18.1931C55.7 18.5308 56.1183 18.7017 56.6144 18.7017C57.1102 18.7017 57.5285 18.5308 57.8572 18.1935C58.1835 17.8595 58.348 17.4417 58.348 16.9519V14.5145L59.0715 13.8531L63.2898 18.1183C63.6346 18.4999 64.0636 18.693 64.5651 18.693C64.9891 18.693 65.3884 18.5332 65.7514 18.2177C66.1296 17.8895 66.3214 17.4757 66.3214 16.9889C66.3214 16.5161 66.142 16.0884 65.7922 15.7207L61.6808 11.4559Z" fill="#00ADC6"/>
<path fill-rule="evenodd" clip-rule="evenodd" d="M76.3177 12.0678C76.3177 13.0711 76.048 13.8763 75.4928 14.5291C74.9512 15.1659 74.2689 15.4752 73.4064 15.4752C72.5451 15.4752 71.867 15.1663 71.3332 14.5307C70.7846 13.8779 70.5177 13.0723 70.5177 12.0678C70.5177 11.0638 70.7883 10.2544 71.3439 9.59424C71.8855 8.95048 72.56 8.63784 73.4064 8.63784C74.2677 8.63784 74.9499 8.95089 75.4915 9.59424C76.0476 10.2548 76.3177 11.0642 76.3177 12.0678ZM79.2872 5.90298C78.9585 5.57596 78.5419 5.4104 78.0486 5.4104C77.5528 5.4104 77.1346 5.5813 76.8063 5.91818C76.638 6.09032 76.513 6.28464 76.4309 6.4995C76.0708 6.24314 75.6646 6.02048 75.2166 5.83478C74.5381 5.55337 73.8019 5.4104 73.0301 5.4104C71.9491 5.4104 70.946 5.70044 70.0484 6.2719C69.1554 6.84089 68.4423 7.64283 67.93 8.65592C67.4219 9.66121 67.1641 10.8091 67.1641 12.0678C67.1641 13.3282 67.426 14.4732 67.9428 15.4715C68.4633 16.4764 69.1835 17.2742 70.0839 17.8424C70.9876 18.413 72.0097 18.7027 73.1209 18.7027C73.8848 18.7027 74.6231 18.5342 75.3144 18.2027C75.7561 17.9903 76.1434 17.7463 76.4726 17.4731C76.4775 17.7426 76.9242 18.7014 78.0486 18.7014C78.544 18.7014 78.9622 18.5305 79.2914 18.1936C79.6172 17.8596 79.7822 17.4418 79.7822 16.9521V7.16011C79.7822 6.65356 79.616 6.23082 79.2876 5.90339L79.2872 5.90298Z" fill="#00ADC6"/>
<path fill-rule="evenodd" clip-rule="evenodd" d="M91.646 12.0454C91.646 13.049 91.3704 13.8583 90.8037 14.519C90.2518 15.1623 89.5641 15.4754 88.7016 15.4754C87.8234 15.4754 87.1284 15.1627 86.5769 14.519C86.0101 13.8588 85.735 13.0494 85.735 12.0454C85.735 11.0421 86.0097 10.2369 86.5757 9.58412C87.1276 8.94734 87.8226 8.63799 88.7016 8.63799C89.5794 8.63799 90.2707 8.94693 90.8148 9.58248C91.3741 10.2357 91.646 11.0417 91.646 12.0454ZM94.2203 8.64167C93.6997 7.6372 92.9796 6.83937 92.0796 6.27079C91.1742 5.70015 90.1529 5.41052 89.0422 5.41052C88.2733 5.41052 87.528 5.5958 86.8264 5.96144C86.404 6.18205 86.0345 6.42773 85.721 6.69723C85.6389 6.49387 85.5552 5.41052 84.1145 5.41052C83.6187 5.41052 83.2004 5.58143 82.8721 5.9183C82.5458 6.2523 82.3809 6.89648 82.3809 7.38618V21.2503C82.3809 21.7577 82.5471 22.1804 82.8758 22.507C83.2037 22.8345 83.6207 23 84.1145 23C84.6098 23 85.0276 22.8291 85.3576 22.4918C85.6831 22.1574 85.848 21.74 85.848 21.2503V17.6125C86.1689 17.8417 86.5282 18.0475 86.9233 18.2279C87.6126 18.543 88.3558 18.7028 89.1329 18.7028C90.2148 18.7028 91.2183 18.4127 92.1146 17.8413C93.0076 17.2731 93.7204 16.4704 94.233 15.4573C94.7416 14.452 94.9994 13.3041 94.9994 12.0454C94.9994 10.7858 94.7375 9.64038 94.2203 8.64167Z" fill="#00ADC6"/>
</svg>
