<svg width="160" height="96" viewBox="0 0 160 96" fill="none" xmlns="http://www.w3.org/2000/svg">
<path d="M115.914 13.1299C175.45 -36.4249 171.786 68.7838 122.326 89.3682C72.8647 109.952 -30.6361 78.2031 8.74921 54.2985C48.1346 30.394 56.3779 62.6847 115.914 13.1299Z" fill="#F5F4F8"/>
<path d="M42.5757 18.9914C59.7888 16.3721 76.2163 1.74728 86.831 0.238264C97.4457 -1.27075 100.568 4.38809 86.831 17.2148C73.0944 30.0415 57.114 32 44.3139 32C31.5138 32 25.3627 21.6107 42.5757 18.9914Z" fill="#F5F4F8"/>
<mask id="mask0_3489_156633" style="mask-type:alpha" maskUnits="userSpaceOnUse" x="0" y="0" width="160" height="96">
<path d="M115.914 13.1299C175.45 -36.4249 171.786 68.7838 122.326 89.3682C72.8647 109.952 -30.6361 78.2031 8.74921 54.2985C48.1346 30.394 56.3779 62.6847 115.914 13.1299Z" fill="#F5F4F8"/>
</mask>
<g mask="url(#mask0_3489_156633)">
<rect x="40" y="24" width="80" height="80" rx="4" fill="url(#paint0_linear_3489_156633)"/>
<line x1="55" y1="39" x2="105" y2="39" stroke="white" stroke-width="6" stroke-linecap="round"/>
<line x1="55" y1="51" x2="77" y2="51" stroke="white" stroke-width="6" stroke-linecap="round"/>
<line x1="55" y1="63" x2="91" y2="63" stroke="white" stroke-width="6" stroke-linecap="round"/>
<circle cx="124" cy="68" r="23" fill="url(#paint1_linear_3489_156633)" stroke="#F5F4F8" stroke-width="6"/>
<path d="M135.071 62.0711L120.929 76.2132L113.858 69.1421" stroke="white" stroke-width="6" stroke-linecap="round" stroke-linejoin="round"/>
</g>
<mask id="mask1_3489_156633" style="mask-type:alpha" maskUnits="userSpaceOnUse" x="0" y="0" width="160" height="48">
<rect width="160" height="48" fill="#F5F4F8"/>
</mask>
<g mask="url(#mask1_3489_156633)">
<rect x="40" y="24" width="80" height="80" rx="4" fill="url(#paint2_linear_3489_156633)"/>
<line x1="55" y1="39" x2="105" y2="39" stroke="white" stroke-width="6" stroke-linecap="round"/>
<circle cx="124" cy="68" r="23" fill="url(#paint3_linear_3489_156633)" stroke="#F5F4F8" stroke-width="6"/>
</g>
<defs>
<linearGradient id="paint0_linear_3489_156633" x1="40" y1="24" x2="120" y2="104" gradientUnits="userSpaceOnUse">
<stop offset="0.145874" stop-color="#81B71B"/>
<stop offset="0.854247" stop-color="#CCF45D"/>
</linearGradient>
<linearGradient id="paint1_linear_3489_156633" x1="104" y1="48" x2="144" y2="88" gradientUnits="userSpaceOnUse">
<stop offset="0.145874" stop-color="#81B71B"/>
<stop offset="0.854247" stop-color="#CCF45D"/>
</linearGradient>
<linearGradient id="paint2_linear_3489_156633" x1="40" y1="24" x2="120" y2="104" gradientUnits="userSpaceOnUse">
<stop offset="0.145874" stop-color="#81B71B"/>
<stop offset="0.854247" stop-color="#CCF45D"/>
</linearGradient>
<linearGradient id="paint3_linear_3489_156633" x1="104" y1="48" x2="144" y2="88" gradientUnits="userSpaceOnUse">
<stop offset="0.145874" stop-color="#81B71B"/>
<stop offset="0.854247" stop-color="#CCF45D"/>
</linearGradient>
</defs>
</svg>
