<svg width="97" height="40" viewBox="0 0 97 40" fill="none" xmlns="http://www.w3.org/2000/svg">
<rect width="97" height="40" fill="white"/>
<path fill-rule="evenodd" clip-rule="evenodd" d="M25 20C25 26.6275 19.6274 32 12.9998 32C6.37258 32 1 26.6275 1 20C1 13.3725 6.37258 8 12.9998 8C19.6274 8 25 13.3725 25 20Z" fill="#0069B1"/>
<path fill-rule="evenodd" clip-rule="evenodd" d="M24.9983 20.0002C24.9983 24.3348 22.7016 28.1286 19.2571 30.2373L10.8457 27.2883H10.842L10.1011 27.03C10.0932 27.0221 10.0807 27.0175 10.0678 27.0134C10.0137 26.993 9.96006 26.968 9.90182 26.9389C9.86397 26.926 9.82653 26.9135 9.78909 26.8927C9.73917 26.8682 9.68925 26.8474 9.6439 26.8262C9.47709 26.7434 9.31943 26.6602 9.16135 26.5641C9.10727 26.5308 9.05319 26.4975 9.00327 26.4688C8.65384 26.2521 8.32062 26.0067 8.0132 25.7321C7.97119 25.6947 7.92584 25.6493 7.88383 25.6115C7.57599 25.329 7.29728 25.017 7.03978 24.6842C7.00192 24.6302 6.96448 24.5802 6.9233 24.5216C6.83594 24.4014 6.75274 24.2762 6.67328 24.1476L6.66122 24.1347C6.52394 23.9642 6.41578 23.7691 6.34049 23.5528C5.81675 22.5248 5.5293 21.3522 5.5293 20.1084V20.0543C5.5293 16.9344 7.32681 14.2305 10.1177 13.0865L10.8332 12.8365L19.3824 9.8418C22.7557 11.9592 24.9983 15.7197 24.9983 20.0002Z" fill="#00ADC6"/>
<path fill-rule="evenodd" clip-rule="evenodd" d="M18.8112 24.4346C18.8112 24.9795 18.5628 25.4109 18.2101 25.7375C16.9987 26.8444 15.4516 27.5978 13.0767 27.5978C12.9548 27.5978 12.8325 27.5978 12.7152 27.5936C12.5625 27.5849 12.4186 27.5766 12.2705 27.5632C12.1573 27.5499 12.0484 27.537 11.9389 27.5196C11.9044 27.5196 11.8695 27.5112 11.8345 27.5067C11.7214 27.4892 11.6082 27.4717 11.4992 27.4455C11.3903 27.428 11.2813 27.4023 11.1764 27.3756C11.0633 27.3498 10.9543 27.3195 10.8457 27.2887C10.8149 27.28 10.7891 27.2754 10.7588 27.2625C10.6494 27.2321 10.5404 27.193 10.4314 27.1535C10.3661 27.136 10.3008 27.1102 10.24 27.084C10.1265 27.0403 10.0133 26.9921 9.89974 26.9401C9.86521 26.9268 9.82569 26.9139 9.79075 26.8923C9.73875 26.8702 9.69091 26.8486 9.64307 26.8269C9.47751 26.7442 9.32068 26.6614 9.15927 26.5653C9.10685 26.5303 9.05486 26.5 9.00244 26.4696C8.65384 26.2516 8.32229 26.0074 8.0132 25.7329C7.96952 25.6938 7.92584 25.6501 7.88258 25.611C7.57724 25.3277 7.29852 25.0182 7.04144 24.6829C7.00192 24.6305 6.96323 24.5785 6.92371 24.5215C6.83677 24.3997 6.75399 24.2778 6.67536 24.1472L6.66247 24.1338C6.52269 23.9637 6.4137 23.7678 6.34007 23.5544C5.81717 22.526 5.5293 21.3538 5.5293 20.1075V20.0555C5.5293 16.8174 7.46409 14.0287 10.436 12.9658C11.2596 12.6692 12.1619 12.5078 13.1291 12.5078C15.3206 12.5078 16.8593 13.1006 18.0745 14.1293C18.3494 14.3515 18.7242 14.8348 18.7242 15.5362C18.7242 16.5691 17.8873 17.3799 16.8593 17.3799C16.319 17.3799 15.9134 17.1619 15.6692 16.9701C14.9416 16.4035 14.1837 16.0508 13.1025 16.0508C11.0462 16.0508 9.58608 17.8678 9.58608 19.9985V20.0555C9.58608 20.7219 9.71712 21.3451 9.95673 21.8983C10.0133 22.0377 10.0832 22.1687 10.1568 22.2993C10.1743 22.3255 10.1876 22.3517 10.2051 22.378C10.292 22.5215 10.3881 22.6525 10.4925 22.779C10.5275 22.831 10.5707 22.8746 10.6148 22.9225C10.6406 22.9528 10.6714 22.9836 10.6972 23.014C10.745 23.0573 10.7933 23.1055 10.8457 23.1534C10.9023 23.2058 10.9634 23.2582 11.0288 23.3102C11.0766 23.3539 11.1332 23.3884 11.1856 23.4233C11.2072 23.4454 11.2334 23.4629 11.2638 23.4803C11.3204 23.5194 11.3819 23.5589 11.4468 23.5939C11.508 23.6326 11.5733 23.6634 11.6386 23.6979C11.8129 23.7852 11.9959 23.8547 12.1877 23.9071C12.2618 23.9292 12.3362 23.9508 12.4186 23.9683H12.4273C12.4968 23.9857 12.5758 23.9986 12.654 24.0115C12.6803 24.0161 12.706 24.0161 12.7327 24.0248C12.7888 24.029 12.8412 24.0382 12.9024 24.0382C12.9457 24.0465 12.9939 24.0465 13.0463 24.0511C13.1162 24.0556 13.1857 24.0598 13.2597 24.0598C14.14 24.0598 14.8588 23.8069 15.5169 23.3801C15.6172 23.3148 15.7216 23.2449 15.8218 23.1708C15.8481 23.1534 15.8701 23.1359 15.8913 23.1143C15.9179 23.0968 15.9437 23.0793 15.9699 23.0573C15.9962 23.036 16.0224 23.014 16.0573 22.9965C16.0877 22.9745 16.1226 22.9528 16.1617 22.9312C16.2794 22.8659 16.4146 22.8048 16.5669 22.7569C16.7237 22.7091 16.8939 22.6783 17.0769 22.6783C18.0487 22.6783 18.8112 23.4629 18.8112 24.4346Z" fill="#FEFEFE"/>
<path fill-rule="evenodd" clip-rule="evenodd" d="M10.2056 22.8781C10.2056 23.4055 10.001 23.8847 9.66111 24.2379C9.30377 24.6298 8.7896 24.874 8.21428 24.874C7.59112 24.874 7.04242 24.5861 6.67634 24.1464L6.66303 24.1335C6.52326 23.9629 6.41468 23.7674 6.34064 23.5536C6.26243 23.3444 6.21875 23.1135 6.21875 22.8781C6.21875 21.7798 7.11189 20.8867 8.21428 20.8867C8.41479 20.8867 8.61072 20.9175 8.79376 20.9787C9.29087 21.1263 9.70021 21.4662 9.94856 21.9063C10.1141 22.19 10.2056 22.5253 10.2056 22.8781Z" fill="#98C93C"/>
<path fill-rule="evenodd" clip-rule="evenodd" d="M38.5449 22.6155C38.2974 22.6155 38.0792 22.6566 37.8944 22.738C37.736 22.8086 37.5653 22.9084 37.3871 23.035C37.2093 23.1611 37.112 23.2178 37.0616 23.2424C36.7523 23.3965 36.2507 23.475 35.5706 23.475C34.657 23.475 33.9302 23.1632 33.3478 22.5219C32.7555 21.8711 32.4676 21.0679 32.4676 20.0676C32.4676 19.0224 32.7514 18.2053 33.335 17.5689C33.9104 16.942 34.6937 16.6376 35.7298 16.6376C35.884 16.6376 36.0998 16.6659 36.3703 16.7206C36.6962 16.7871 36.8653 16.8512 36.9338 16.8849C37.0526 16.9511 37.1775 17.0353 37.3046 17.1347C37.4716 17.2662 37.6469 17.3734 37.8251 17.4531C38.026 17.5435 38.2693 17.5878 38.568 17.5878C38.9973 17.5878 39.3648 17.41 39.6321 17.0735C39.8804 16.7584 40.0062 16.3886 40.0062 15.9737C40.0062 15.1636 39.541 14.5161 38.6228 14.0498C37.7859 13.6254 36.6826 13.4102 35.3433 13.4102C34.1315 13.4102 33.0285 13.6977 32.0659 14.2647C31.1019 14.8333 30.3409 15.6311 29.8043 16.6368C29.2706 17.6359 29 18.7899 29 20.0676C29 21.2972 29.2578 22.4302 29.7664 23.4343C30.2795 24.4495 31.017 25.2567 31.9582 25.8331C32.899 26.4099 33.9995 26.7024 35.2299 26.7024C36.0457 26.7024 36.8273 26.603 37.5529 26.407C38.2908 26.207 38.8979 25.9313 39.3586 25.5878C39.8788 25.1992 40.1427 24.7572 40.1427 24.2744C40.1427 23.8053 39.9996 23.4101 39.7171 23.0987C39.4251 22.7782 39.0307 22.6155 38.5449 22.6155Z" fill="#00ADC6"/>
<path fill-rule="evenodd" clip-rule="evenodd" d="M49.8177 20.0676C49.8177 21.0708 49.548 21.8761 48.9928 22.5289C48.4512 23.1656 47.7689 23.475 46.9064 23.475C46.0451 23.475 45.367 23.1661 44.8332 22.5305C44.2846 21.8777 44.0177 21.0721 44.0177 20.0676C44.0177 19.0635 44.2883 18.2542 44.8439 17.594C45.3855 16.9503 46.06 16.6376 46.9064 16.6376C47.7677 16.6376 48.4499 16.9507 48.9915 17.594C49.5476 18.2546 49.8177 19.064 49.8177 20.0676ZM52.7872 13.9027C52.4585 13.5757 52.0419 13.4102 51.5486 13.4102C51.0528 13.4102 50.6346 13.5811 50.3063 13.9179C50.138 14.0901 50.013 14.2844 49.9309 14.4993C49.5708 14.2429 49.1646 14.0202 48.7166 13.8345C48.0381 13.5531 47.3019 13.4102 46.5301 13.4102C45.4491 13.4102 44.446 13.7002 43.5484 14.2717C42.6554 14.8407 41.9423 15.6426 41.43 16.6557C40.9219 17.661 40.6641 18.8088 40.6641 20.0676C40.6641 21.328 40.926 22.473 41.4428 23.4713C41.9633 24.4762 42.6835 25.274 43.5839 25.8421C44.4876 26.4128 45.5097 26.7024 46.6209 26.7024C47.3848 26.7024 48.1231 26.534 48.8144 26.2024C49.2561 25.99 49.6434 25.746 49.9726 25.4728C49.9775 25.7423 50.4242 26.7012 51.5486 26.7012C52.044 26.7012 52.4622 26.5303 52.7914 26.1934C53.1172 25.8594 53.2822 25.4416 53.2822 24.9519V15.1599C53.2822 14.6533 53.116 14.2306 52.7876 13.9031L52.7872 13.9027Z" fill="#00ADC6"/>
<path fill-rule="evenodd" clip-rule="evenodd" d="M62.6808 19.4559L65.8295 16.5695C66.275 16.1804 66.5014 15.7445 66.5014 15.2729C66.5014 14.8908 66.3331 14.5199 66.0023 14.1707C65.6654 13.8161 65.2727 13.6366 64.8359 13.6366C64.3566 13.6366 63.9322 13.8173 63.5783 14.1702L59.348 18.246V10.7497C59.348 10.26 59.1835 9.8426 58.8568 9.50778C58.5281 9.1709 58.1098 9 57.6144 9C57.1191 9 56.7008 9.1709 56.3721 9.50778C56.0458 9.84219 55.8809 10.2596 55.8809 10.7497V24.9519C55.8809 25.4421 56.0463 25.8599 56.3717 26.1931C56.7 26.5308 57.1183 26.7017 57.6144 26.7017C58.1102 26.7017 58.5285 26.5308 58.8572 26.1935C59.1835 25.8595 59.348 25.4417 59.348 24.9519V22.5145L60.0715 21.8531L64.2898 26.1183C64.6346 26.4999 65.0636 26.693 65.5651 26.693C65.9891 26.693 66.3884 26.5332 66.7514 26.2177C67.1296 25.8895 67.3214 25.4757 67.3214 24.9889C67.3214 24.5161 67.142 24.0884 66.7922 23.7207L62.6808 19.4559Z" fill="#00ADC6"/>
<path fill-rule="evenodd" clip-rule="evenodd" d="M77.3177 20.0676C77.3177 21.0708 77.048 21.8761 76.4928 22.5289C75.9512 23.1656 75.2689 23.475 74.4064 23.475C73.5451 23.475 72.867 23.1661 72.3332 22.5305C71.7846 21.8777 71.5177 21.0721 71.5177 20.0676C71.5177 19.0635 71.7883 18.2542 72.3439 17.594C72.8855 16.9503 73.56 16.6376 74.4064 16.6376C75.2677 16.6376 75.9499 16.9507 76.4915 17.594C77.0476 18.2546 77.3177 19.064 77.3177 20.0676ZM80.2872 13.9027C79.9585 13.5757 79.5419 13.4102 79.0486 13.4102C78.5528 13.4102 78.1346 13.5811 77.8063 13.9179C77.638 14.0901 77.513 14.2844 77.4309 14.4993C77.0708 14.2429 76.6646 14.0202 76.2166 13.8345C75.5381 13.5531 74.8019 13.4102 74.0301 13.4102C72.9491 13.4102 71.946 13.7002 71.0484 14.2717C70.1554 14.8407 69.4423 15.6426 68.93 16.6557C68.4219 17.661 68.1641 18.8088 68.1641 20.0676C68.1641 21.328 68.426 22.473 68.9428 23.4713C69.4633 24.4762 70.1835 25.274 71.0839 25.8421C71.9876 26.4128 73.0097 26.7024 74.1209 26.7024C74.8848 26.7024 75.6231 26.534 76.3144 26.2024C76.7561 25.99 77.1434 25.746 77.4726 25.4728C77.4775 25.7423 77.9242 26.7012 79.0486 26.7012C79.544 26.7012 79.9622 26.5303 80.2914 26.1934C80.6172 25.8594 80.7822 25.4416 80.7822 24.9519V15.1599C80.7822 14.6533 80.616 14.2306 80.2876 13.9031L80.2872 13.9027Z" fill="#00ADC6"/>
<path fill-rule="evenodd" clip-rule="evenodd" d="M92.6464 20.045C92.6464 21.0487 92.3709 21.858 91.8041 22.5186C91.2522 23.1619 90.5646 23.475 89.7021 23.475C88.8239 23.475 88.1289 23.1624 87.5774 22.5186C87.0106 21.8584 86.7355 21.0491 86.7355 20.045C86.7355 19.0418 87.0102 18.2366 87.5761 17.5838C88.128 16.947 88.8231 16.6376 89.7021 16.6376C90.5799 16.6376 91.2712 16.9466 91.8153 17.5821C92.3746 18.2353 92.6464 19.0414 92.6464 20.045ZM95.2203 16.6413C94.6997 15.6368 93.9796 14.839 93.0796 14.2704C92.1742 13.6998 91.1529 13.4102 90.0422 13.4102C89.2733 13.4102 88.528 13.5954 87.8264 13.9611C87.404 14.1817 87.0345 14.4274 86.721 14.6969C86.6389 14.4935 86.5552 13.4102 85.1145 13.4102C84.6187 13.4102 84.2004 13.5811 83.8721 13.9179C83.5458 14.2519 83.3809 14.8961 83.3809 15.3858V29.2499C83.3809 29.7573 83.5471 30.1801 83.8758 30.5067C84.2037 30.8341 84.6207 30.9997 85.1145 30.9997C85.6098 30.9997 86.0276 30.8288 86.3576 30.4915C86.6831 30.1571 86.848 29.7397 86.848 29.2499V25.6121C87.1689 25.8413 87.5282 26.0472 87.9233 26.2275C88.6126 26.5426 89.3558 26.7024 90.1329 26.7024C91.2148 26.7024 92.2183 26.4124 93.1146 25.8409C94.0076 25.2727 94.7204 24.47 95.233 23.4569C95.7416 22.4516 95.9994 21.3038 95.9994 20.045C95.9994 18.7854 95.7375 17.64 95.2203 16.6413Z" fill="#00ADC6"/>
</svg>
