<svg version="1.2" xmlns="http://www.w3.org/2000/svg" viewBox="0 0 1280 169" width="1280" height="169">
	<title>Main Banner IELTS-svg</title>
	<defs>
		<clipPath clipPathUnits="userSpaceOnUse" id="cp1">
			<path d="m0-255h1280v424h-1280z"/>
		</clipPath>
		
		<clipPath clipPathUnits="userSpaceOnUse" id="cp2">
			<path d="m0-255h276c8.84 0 16 7.16 16 16v154.85h-292z"/>
		</clipPath>
		
	</defs>
	<style>
		.s0 { fill: url(#g1) } 
		.s1 { fill: #ffffff } 
		.s2 { fill: #98c93c } 
		.s3 { fill: url(#g2) } 
		.s4 { fill: #a5dde7 } 
		.s5 { fill: #0069b1 } 
		.s6 { opacity: .9;fill: url(#g3) } 
	</style>
	<g id="Clip-Path" clip-path="url(#cp1)">
		<g id="Layer">
			<path id="Layer" class="s0" d="m0-255h1280v496h-1280z"/>
			<path id="Layer" class="s1" d="m1103-187l28-28v56z"/>
			<path id="Layer" class="s2" d="m1069-187l28-28v56z"/>
			<path id="Layer" class="s3" d="m1186-255h67.9c0 14.5 11.6 26.1 26.1 26.1v67.9c-51.8 0-94-42.2-94-94z"/>
			<g id="Clip-Path" clip-path="url(#cp2)">
				<g id="Layer">
					<path id="Layer" class="s4" d="m0-255h73v58c0 8.3-6.7 15-15 15h-58z"/>
					<path id="Layer" class="s2" d="m73-255v52.7c-11.2 0-20.3 9.1-20.3 20.3h-52.7c0-40.2 32.8-73 73-73z"/>
					<path id="Layer" class="s4" d="m135.3-216.7l-26.3 26.3v-52.6z"/>
					<path id="Layer" class="s5" d="m161.6-216.7l-26.3 26.3v-52.6z"/>
					<path id="Layer" class="s4" d="m135.3-216.7l-26.3 26.3v-52.6z"/>
					<path id="Layer" class="s5" d="m161.6-216.7l-26.3 26.3v-52.6z"/>
					<path id="Layer" class="s4" d="m135.3-216.7l-26.3 26.3v-52.6z"/>
					<path id="Layer" class="s5" d="m161.6-216.7l-26.3 26.3v-52.6z"/>
				</g>
			</g>
			<path id="Layer" class="s2" d="m94 169h-94c0-30.9 0-57.7 0-94 51.8 0 94 42.2 94 94z"/>
			<path id="Layer" class="s6" d="m703.5 34c-8.6 0-15.5-6.7-15.5-15 0-8.3 6.9-15 15.5-15 8.6 0 15.5 6.7 15.5 15 0 8.3-6.9 15-15.5 15z"/>
			<path id="Layer" class="s4" d="m582-188c-13.9 0-27.7-2.7-40.6-8.1-12.8-5.3-24.5-13.1-34.4-22.9-9.8-9.9-17.6-21.6-22.9-34.4-5.4-12.9-8.1-26.7-8.1-40.6h49.4c0 7.4 1.5 14.8 4.3 21.7 2.9 6.8 7 13.1 12.3 18.3 5.2 5.3 11.5 9.4 18.3 12.3 6.9 2.8 14.3 4.3 21.7 4.3z"/>
			<path id="Layer" class="s2" d="m582-237.4c7.4 0 14.8-1.5 21.7-4.3 6.8-2.9 13.1-7 18.3-12.3 5.3-5.2 9.4-11.5 12.3-18.3 2.8-6.9 4.3-14.3 4.3-21.7h49.4c0 13.9-2.7 27.7-8.1 40.6-5.3 12.8-13.1 24.5-22.9 34.4-9.9 9.8-21.6 17.6-34.4 22.9-12.9 5.4-26.7 8.1-40.6 8.1z"/>
			<path id="Layer" class="s2" d="m1245.9 134.5l18.5 18.5h-37z"/>
			<path id="Layer" class="s4" d="m1245.9 113l18.5 18.5h-37z"/>
		</g>
	</g>
</svg>
