<svg version="1.2" xmlns="http://www.w3.org/2000/svg" viewBox="0 0 414 87" width="414" height="87">
	<title>result-page-bg-mobile-svg</title>
	<defs>
		<clipPath clipPathUnits="userSpaceOnUse" id="cp1">
			<path d="m-23 0h460v556h-460z"/>
		</clipPath>
		<linearGradient id="g1" x1="-23" y1=".3" x2="522.9" y2="452.2" gradientUnits="userSpaceOnUse">
			<stop offset=".1" stop-color="#fdfdfd"/>
			<stop offset=".9" stop-color="#e8e8e8"/>
		</linearGradient>
		<linearGradient id="g2" x1="396.4" y1="0" x2="396.4" y2="81.2" gradientUnits="userSpaceOnUse">
			<stop offset="0" stop-color="#55c5d1"/>
			<stop offset="1" stop-color="#4699c2"/>
		</linearGradient>
	</defs>
	<style>
		.s0 { fill: #ddddea } 
		.s1 { fill: url(#g1) } 
		.s2 { fill: url(#g2) } 
		.s3 { fill: #a5dde7 } 
		.s4 { fill: #98c93c } 
	</style>
	<g id="Clip-Path" clip-path="url(#cp1)">
		<g id="Layer">
			<path id="Layer" class="s0" d="m-23 0.3h400v444.8h-400z"/>
			<path id="Layer" class="s1" d="m-23 0.3h460v555.7h-460z"/>
			<path id="Layer" class="s2" d="m355.9 0h58.6c0 12.5 10 22.5 22.5 22.5v58.7c-44.7 0-81.1-36.4-81.1-81.2z"/>
			<path id="Layer" class="s3" d="m73.7 74.5c-15.5 0-30.8-3-45.1-9-14.3-5.9-27.3-14.6-38.2-25.5-11-11-19.6-24-25.5-38.3-6-14.3-9-29.6-9-45.1h54.9c0 8.3 1.6 16.5 4.8 24.1 3.1 7.6 7.8 14.6 13.6 20.4 5.8 5.9 12.8 10.5 20.4 13.7 7.6 3.1 15.8 4.8 24.1 4.8z"/>
			<path id="Layer" class="s4" d="m73.7 19.6c8.2 0 16.4-1.7 24-4.8 7.7-3.2 14.6-7.8 20.4-13.7 5.9-5.8 10.5-12.8 13.7-20.4 3.1-7.6 4.7-15.8 4.7-24.1h54.9c0 15.5-3 30.8-8.9 45.1-5.9 14.3-14.6 27.3-25.6 38.3-10.9 10.9-23.9 19.6-38.2 25.5-14.3 6-29.6 9-45 9z"/>
			<path id="Layer" class="s4" d="m81.4 556h-104.4c0-34.3 0-64.1 0-104.5 57.6 0 104.4 46.9 104.4 104.5z"/>
			<path id="Layer" class="s4" d="m405.3 524.3l20.6 20.6h-41.1z"/>
			<path id="Layer" class="s3" d="m405.3 500.4l20.6 20.6h-41.1z"/>
		</g>
	</g>
</svg>