<svg width="21" height="16" viewBox="0 0 21 16" fill="none" xmlns="http://www.w3.org/2000/svg">
<path fill-rule="evenodd" clip-rule="evenodd" d="M9.85297 13.1176C9.85297 13.6699 10.3007 14.1176 10.853 14.1176H17.3236C17.8758 14.1176 18.3236 13.6699 18.3236 13.1176V2.88232C18.3236 2.33004 17.8758 1.88232 17.3236 1.88232H10.853C10.3007 1.88232 9.85297 2.33004 9.85297 2.88232V13.1176ZM18.3235 0H1.88235C0.847059 0 0 0.847059 0 1.88235V14.1176C0 15.1529 0.847059 16 1.88235 16H18.3235C19.3588 16 20.2059 15.1529 20.2059 14.1176V1.88235C20.2059 0.847059 19.3588 0 18.3235 0ZM10.7941 10.5882C10.7941 10.9781 11.1102 11.2941 11.5 11.2941H16.6765C17.0663 11.2941 17.3824 10.9781 17.3824 10.5882C17.3824 10.1984 17.0663 9.88232 16.6765 9.88232H11.5C11.1102 9.88232 10.7941 10.1984 10.7941 10.5882ZM10.7941 5.88234C10.7941 6.27218 11.1102 6.58822 11.5 6.58822H16.6765C17.0663 6.58822 17.3824 6.27218 17.3824 5.88234C17.3824 5.49249 17.0663 5.17645 16.6765 5.17645H11.5C11.1102 5.17645 10.7941 5.49249 10.7941 5.88234ZM10.7941 8.2353C10.7941 8.62515 11.1102 8.94118 11.5 8.94118H16.6765C17.0663 8.94118 17.3824 8.62515 17.3824 8.2353C17.3824 7.84545 17.0663 7.52942 16.6765 7.52942H11.5C11.1102 7.52942 10.7941 7.84545 10.7941 8.2353Z" fill="#0069B1"/>
</svg>
